<svg id="online" xmlns="http://www.w3.org/2000/svg" width="170.275" height="176.146" viewBox="0 0 170.275 176.146">
  <path id="Path_1" data-name="Path 1" d="M103.78,104H50.936A2.936,2.936,0,0,0,48,106.936V124.55a2.936,2.936,0,0,0,2.936,2.936H103.78a2.936,2.936,0,0,0,2.936-2.936V106.936A2.936,2.936,0,0,0,103.78,104Zm-2.936,17.615H53.872V109.872h46.972Zm0,0" transform="translate(-30.385 -65.835)" fill="#1e1e1e"/>
  <path id="Path_2" data-name="Path 2" d="M48,184H59.743v5.872H48Zm0,0" transform="translate(-30.385 -116.477)" fill="#1e1e1e"/>
  <path id="Path_3" data-name="Path 3" d="M96,184h41.1v5.872H96Zm0,0" transform="translate(-60.771 -116.477)" fill="#1e1e1e"/>
  <path id="Path_4" data-name="Path 4" d="M48,216H83.229v5.872H48Zm0,0" transform="translate(-30.385 -136.734)" fill="#1e1e1e"/>
  <path id="Path_5" data-name="Path 5" d="M160,216h17.615v5.872H160Zm0,0" transform="translate(-101.285 -136.734)" fill="#1e1e1e"/>
  <path id="Path_6" data-name="Path 6" d="M48,248H71.486v5.872H48Zm0,0" transform="translate(-30.385 -156.991)" fill="#1e1e1e"/>
  <path id="Path_7" data-name="Path 7" d="M128,248h29.358v5.872H128Zm0,0" transform="translate(-81.028 -156.991)" fill="#1e1e1e"/>
  <path id="Path_8" data-name="Path 8" d="M128,64h23.486v5.872H128Zm0,0" transform="translate(-81.028 -40.514)" fill="#1e1e1e"/>
  <path id="Path_9" data-name="Path 9" d="M128,40h5.872v5.872H128Zm0,0" transform="translate(-81.028 -25.321)" fill="#1e1e1e"/>
  <path id="Path_10" data-name="Path 10" d="M149.724,111.559V38.165a20.55,20.55,0,0,0-41.1,0V132.11A26.451,26.451,0,0,1,82.2,158.532H73.394A26.451,26.451,0,0,1,46.972,132.11V117.431H85.137a8.808,8.808,0,0,0,8.807-8.807V8.807A8.808,8.808,0,0,0,85.137,0H8.807A8.808,8.808,0,0,0,0,8.807v99.816a8.808,8.808,0,0,0,8.807,8.807H41.1V132.11A32.332,32.332,0,0,0,73.394,164.4H82.2A32.332,32.332,0,0,0,114.5,132.11V38.165a14.679,14.679,0,1,1,29.358,0v73.394a20.577,20.577,0,0,0-20.55,20.55V155.6a20.577,20.577,0,0,0,20.55,20.55h5.872a20.577,20.577,0,0,0,20.55-20.55V132.11A20.577,20.577,0,0,0,149.724,111.559ZM29.358,5.872V13.8l-.493-.74a2.936,2.936,0,0,0-4.885,0l-.493.74V5.872ZM5.872,108.624V8.807A2.936,2.936,0,0,1,8.807,5.872h8.807V23.486a2.936,2.936,0,0,0,5.378,1.63l3.429-5.153,3.429,5.143a2.936,2.936,0,0,0,5.378-1.62V5.872H85.137a2.936,2.936,0,0,1,2.936,2.936v99.816a2.936,2.936,0,0,1-2.936,2.936H8.807a2.936,2.936,0,0,1-2.936-2.936ZM164.4,155.6a14.7,14.7,0,0,1-14.679,14.679h-5.872A14.7,14.7,0,0,1,129.174,155.6V132.11a14.7,14.7,0,0,1,14.679-14.679h5.872A14.7,14.7,0,0,1,164.4,132.11Zm0,0" fill="#1e1e1e"/>
  <path id="Path_11" data-name="Path 11" d="M392,336h5.872v11.743H392Zm0,0" transform="translate(-248.147 -212.697)" fill="#1e1e1e"/>
</svg>
